<svg width="842" height="312" viewBox="0 0 842 312" fill="none" xmlns="http://www.w3.org/2000/svg">
<path d="M492.78 193.36C492.78 193.434 492.752 193.504 492.702 193.558C492.652 193.612 492.583 193.645 492.51 193.65C485.47 194.277 478.653 193.77 472.06 192.13C458.74 188.82 452.12 178.03 452.16 164.59C452.22 141.063 452.143 104.83 451.93 55.89C451.93 55.6539 452.022 55.4276 452.187 55.2607C452.352 55.0938 452.576 55 452.81 55H475.36C475.593 55 475.817 55.0927 475.982 55.2578C476.147 55.4228 476.24 55.6466 476.24 55.88C476.293 106.14 476.283 140.873 476.21 160.08C476.19 166.47 479.07 172.46 486.1 172.82C488.1 172.92 490.083 172.947 492.05 172.9C492.145 172.899 492.24 172.916 492.328 172.952C492.417 172.988 492.497 173.04 492.565 173.107C492.633 173.174 492.687 173.254 492.724 173.342C492.761 173.43 492.78 173.525 492.78 173.62V193.36Z" fill="white"/>
<path d="M89.1398 81.7887L69.7698 91.6487C60.7998 81.2787 58.8098 68.9987 59.8698 55.6687C59.88 55.5245 59.9445 55.3897 60.0503 55.2913C60.1561 55.1929 60.2953 55.1383 60.4398 55.1387H79.0599C79.15 55.1387 79.2392 55.1566 79.3224 55.1914C79.4056 55.2262 79.481 55.2772 79.5443 55.3414C79.6075 55.4056 79.6574 55.4817 79.691 55.5654C79.7246 55.6491 79.7412 55.7385 79.7398 55.8287C79.7265 58.2687 79.8465 62.0354 80.0998 67.1287C80.4265 73.7154 83.4398 78.602 89.1398 81.7887Z" fill="#87D44E"/>
<path d="M89.1395 81.7891C92.8329 83.2424 95.4695 83.9724 97.0495 83.9791C101.596 83.9924 105.593 84.059 109.04 84.179C109.273 84.1868 109.494 84.2851 109.657 84.453C109.819 84.621 109.91 84.8455 109.91 85.079V103.359C109.91 103.523 109.848 103.681 109.737 103.802C109.626 103.922 109.473 103.996 109.31 104.009C95.0995 105.149 80.2795 102.019 69.7695 91.649L89.1395 81.7891Z" fill="#68C24B"/>
<path d="M25 103.719L25 83.1992C24.9998 83.0266 25.0663 82.8606 25.1855 82.7358C25.3047 82.611 25.4675 82.537 25.64 82.5292C31.47 82.2192 42.98 82.4692 48.72 84.2492C67.6 90.0992 75.96 106.269 75.95 125.739C75.9433 135.446 75.9567 145.309 75.99 155.329C75.9967 157.163 76.4767 159.489 77.43 162.309C80.16 170.379 88.87 172.269 96.35 172.229C105.763 172.189 110.937 172.173 111.87 172.179C112.033 172.182 112.188 172.248 112.302 172.364C112.416 172.48 112.48 172.637 112.48 172.799V193.039C112.48 193.144 112.439 193.244 112.366 193.319C112.294 193.393 112.194 193.437 112.09 193.439C105.17 193.693 98.0867 193.676 90.84 193.389C66.78 192.429 51.86 178.929 51.89 154.599C51.9033 144.359 51.9133 132.116 51.92 117.869C51.92 115.049 51.2433 112.353 49.89 109.779C46.15 102.709 33.4 104.339 25.63 104.349C25.4629 104.349 25.3027 104.283 25.1845 104.165C25.0664 104.047 25 103.886 25 103.719Z" fill="white"/>
<path d="M145.139 146.108C145.077 146.108 145.015 146.121 144.959 146.146C144.902 146.171 144.851 146.208 144.809 146.254C144.767 146.301 144.736 146.355 144.717 146.415C144.698 146.474 144.692 146.537 144.699 146.598C145.666 155.665 149.799 162.712 157.099 167.738C163.639 172.238 172.369 173.298 180.569 172.588C188.519 171.898 196.549 167.678 200.899 160.998C201.019 160.811 201.184 160.657 201.38 160.55C201.576 160.444 201.796 160.388 202.019 160.388H224.369C224.46 160.389 224.549 160.411 224.629 160.452C224.709 160.493 224.779 160.552 224.832 160.625C224.886 160.698 224.922 160.782 224.937 160.872C224.952 160.961 224.946 161.052 224.919 161.138C218.819 180.538 202.429 192.638 182.079 194.138C176.809 194.528 169.009 194.548 163.489 193.588C146.263 190.608 133.589 181.168 125.469 165.268C121.949 158.388 120.229 151.085 120.309 143.358C120.379 135.568 120.289 129.178 122.089 122.788C127.389 103.898 140.809 88.8483 160.629 84.9483C173.949 82.335 186.539 83.5583 198.399 88.6183C204.373 91.1717 209.863 95.4917 214.869 101.578C225.029 113.938 228.329 129.958 227.099 145.648C227.089 145.774 227.031 145.891 226.936 145.977C226.842 146.062 226.718 146.109 226.589 146.108H145.139ZM202.099 128.168C202.212 128.168 202.322 128.144 202.424 128.097C202.526 128.05 202.616 127.981 202.689 127.895C202.761 127.809 202.814 127.709 202.843 127.601C202.873 127.492 202.878 127.379 202.859 127.268C201.159 117.242 196.189 110.292 187.949 106.418C179.569 102.478 166.989 103.008 158.899 107.558C151.759 111.572 147.163 118.132 145.109 127.238C145.084 127.35 145.084 127.465 145.109 127.577C145.134 127.688 145.184 127.792 145.255 127.882C145.326 127.971 145.417 128.043 145.52 128.093C145.622 128.142 145.735 128.168 145.849 128.168H202.099Z" fill="white"/>
<path d="M357.29 146.138C357.228 146.138 357.167 146.151 357.111 146.176C357.055 146.201 357.005 146.237 356.963 146.284C356.922 146.33 356.89 146.384 356.871 146.444C356.851 146.503 356.844 146.566 356.85 146.628C357.83 155.702 361.976 162.745 369.29 167.758C375.84 172.258 384.57 173.308 392.77 172.578C400.73 171.878 408.75 167.648 413.1 160.958C413.219 160.771 413.384 160.617 413.58 160.51C413.776 160.404 413.996 160.348 414.22 160.348L436.569 160.318C436.661 160.317 436.751 160.338 436.832 160.379C436.914 160.419 436.985 160.478 437.04 160.551C437.094 160.624 437.131 160.709 437.146 160.799C437.162 160.889 437.156 160.981 437.129 161.068C431.049 180.478 414.669 192.608 394.309 194.138C389.039 194.538 381.24 194.568 375.72 193.618C358.48 190.658 345.786 181.232 337.64 165.338C334.106 158.458 332.376 151.152 332.45 143.418C332.51 135.628 332.41 129.238 334.2 122.838C339.48 103.938 352.88 88.8584 372.71 84.9384C386.03 82.305 398.626 83.5117 410.499 88.5584C416.473 91.0984 421.969 95.4117 426.989 101.498C437.169 113.848 440.49 129.868 439.28 145.568C439.27 145.692 439.213 145.808 439.12 145.893C439.028 145.978 438.906 146.027 438.78 146.028L357.29 146.138ZM414.09 128.108C414.202 128.107 414.313 128.082 414.414 128.034C414.515 127.986 414.605 127.916 414.677 127.83C414.748 127.745 414.8 127.645 414.828 127.537C414.856 127.43 414.86 127.317 414.84 127.208C413.126 117.215 408.156 110.295 399.929 106.448C391.569 102.538 379.02 103.098 370.96 107.648C363.853 111.668 359.286 118.222 357.26 127.308C357.236 127.419 357.237 127.533 357.263 127.644C357.289 127.754 357.339 127.857 357.41 127.945C357.481 128.033 357.571 128.104 357.673 128.153C357.775 128.202 357.886 128.228 357.999 128.228L414.09 128.108Z" fill="white"/>
<path d="M279.61 166.279C279.977 166.279 280.184 166.119 280.23 165.799C281.51 156.409 284.06 148.849 287.18 139.749C294.327 118.929 300.533 100.996 305.8 85.9494C305.835 85.8495 305.9 85.7631 305.984 85.7021C306.068 85.6412 306.168 85.6088 306.27 85.6094H330.83C330.943 85.61 331.055 85.6381 331.155 85.6911C331.255 85.7442 331.34 85.8207 331.404 85.9141C331.468 86.0075 331.508 86.115 331.521 86.2274C331.535 86.3398 331.521 86.4537 331.48 86.5594L291.51 192.889C291.449 193.057 291.338 193.201 291.193 193.303C291.048 193.405 290.876 193.459 290.7 193.459C287.033 193.486 283.317 193.493 279.55 193.479C275.783 193.473 272.063 193.449 268.39 193.409C268.213 193.409 268.04 193.353 267.895 193.249C267.75 193.145 267.64 192.998 267.58 192.829L228.13 86.3094C228.09 86.2037 228.076 86.0898 228.089 85.9774C228.102 85.865 228.142 85.7575 228.206 85.6641C228.27 85.5707 228.356 85.4942 228.456 85.4411C228.556 85.3881 228.667 85.36 228.78 85.3594L253.34 85.4794C253.442 85.4787 253.542 85.5111 253.626 85.5721C253.711 85.633 253.775 85.7195 253.81 85.8194C259.003 100.893 265.124 118.856 272.17 139.709C275.25 148.829 277.76 156.399 279 165.799C279.04 166.113 279.244 166.273 279.61 166.279Z" fill="white"/>
<path fill-rule="evenodd" clip-rule="evenodd" d="M567.881 30.4804C575.605 29.3248 583.618 29.3601 591.915 30.58C598.237 31.5077 606.602 33.4229 613.409 36.0663C618.149 37.8998 621.181 39.0514 622.52 39.5263C630.942 42.4914 639.686 46.809 646.216 50.4452C652.295 53.8329 658.244 56.8644 664.386 60.7753C674.616 67.2721 684.511 74.2394 694.073 81.6767C694.914 82.194 696.091 83.0948 697.581 84.3437C709.045 93.9383 719.355 103.253 728.51 112.288L727.809 112.999L728.556 112.336C732.03 116.249 735.279 119.995 739.047 122.163C742.693 124.261 746.844 124.887 752.242 122.435C754.59 120.839 756.388 119.077 757.665 117.156L757.667 117.154C759.855 113.878 762.161 109.932 764.583 105.314C768.244 98.2552 771.149 90.9298 773.297 83.3368C774.393 79.4607 774.969 75.5104 775.028 71.4843C775.051 69.6741 774.958 68.1939 774.76 67.0292C774.401 64.9176 774.08 62.5 771.18 60.9277C762.191 58.4497 752.76 58.5621 742.865 61.2939C734.3 63.651 726.601 66.2776 719.768 69.1708L719.381 68.2548L719.754 69.1767L712.368 72.163L712.369 72.164C711.898 72.3579 711.385 72.4261 710.88 72.3622C710.374 72.2984 709.894 72.1048 709.487 71.7988L699.815 64.5917L690.168 58.2236L690.677 57.4492L690.16 58.2167L687.479 56.4072L687.48 56.4062C687.227 56.2359 687.019 56.0064 686.877 55.7363C686.734 55.4648 686.661 55.1609 686.666 54.8534L686.683 54.6249C686.715 54.3982 686.789 54.179 686.902 53.9784L687.027 53.7851C687.161 53.6046 687.327 53.4503 687.517 53.329L687.516 53.3281C691.794 50.5635 696.3 48.0624 701.032 45.8242C710.778 41.2154 721.182 37.4434 732.243 34.5058L734.464 33.9286C740.957 32.2784 747.77 31.4362 754.899 31.3984C763.306 30.3786 771.673 31.1976 779.992 33.8466L779.689 34.7988L780.031 33.8593C785.158 35.7239 789.823 38.6856 794.023 42.7284L793.347 43.4296L794.04 42.747C798.246 47.0151 801.154 51.8386 802.739 57.2118C804.455 62.5231 805.133 67.8721 804.766 73.2519C804.799 81.6253 803 89.0919 800.801 96.9492C800.053 99.6176 799.216 102.145 798.29 104.531C793.433 117.064 787.247 128.872 779.733 139.954C776.668 149.057 775.435 157.634 779.166 166.533L783.032 175.482L790.739 190.834C794.412 198.012 797.441 205.452 799.825 213.153L798.869 213.448L799.834 213.184L802.964 224.595L802.025 224.851L802.968 224.612C804.884 232.12 805.394 239.549 804.492 246.892C803.505 254.844 800.94 261.606 796.765 267.136L796.356 267.667C790.847 274.687 783.342 279.086 773.906 280.881C763.868 282.795 753.247 282.565 742.053 280.208C733.2 278.542 724.598 275.844 716.25 272.115C708.641 269.303 701.438 265.628 694.643 261.092L695.152 260.328L694.636 261.086L687.226 256.036L687.227 256.035C686.962 255.855 686.745 255.613 686.597 255.328C686.449 255.042 686.374 254.724 686.381 254.402L686.387 254.282C686.41 254.002 686.494 253.731 686.633 253.486L686.764 253.285C686.908 253.093 687.086 252.929 687.291 252.802C693.655 248.825 699.969 244.634 706.234 240.231C707.48 239.349 708.971 238.574 710.694 237.898C711.055 237.757 711.441 237.692 711.828 237.705C712.215 237.718 712.596 237.81 712.946 237.976L727.254 244.716C737.292 248.808 747.556 251.79 758.046 253.664C762.148 253.931 766.09 253.748 769.173 252.408C772.166 251.107 774.424 248.683 775.177 244.2C775.153 232.381 770.316 221.903 765.619 211.028L758.386 197.406L753.289 190.862C747.905 186.327 741.025 187.321 736.085 191.856L736.084 191.857C734.12 193.655 732.209 195.439 730.351 197.21L730.352 197.211C719.605 207.832 708.373 217.489 696.661 226.184C687.716 233.997 676.466 241.179 668.523 246.597C661.264 251.557 655.65 254.555 648.237 259.036C646.209 260.259 643.402 261.795 639.828 263.639C630.234 268.59 619.756 273.028 608.396 276.955C601.573 279.308 593.634 280.855 584.593 281.606C579.835 281.997 575.434 281.936 571.397 281.414C566.598 281.168 561.979 280.036 557.545 278.019L557.958 277.109L557.522 278.009C552.85 275.748 548.837 272.757 545.494 269.037L546.237 268.368L545.476 269.015C540.013 262.566 537.031 255.016 536.533 246.398L536.532 246.399C535.662 236.676 536.41 227.181 538.779 217.922L539.748 218.169L539.747 218.168L538.789 217.892L543.468 201.672L544.429 201.949L543.485 201.62C546.552 192.813 550.002 186.459 555.076 176.331C556.835 172.824 558.944 169.76 561.096 166.702C562.326 161.898 564.138 157.196 563.787 151.641L560.722 140.55L550.579 121.784L551.449 121.312L550.541 121.705L542.871 103.905L542.842 103.831L537.685 86.5429L537.679 86.5107C536.137 78.9906 535.458 69.9731 536.793 61.496C538.127 53.0229 541.491 44.9884 548.129 39.5937C554.302 34.5765 560.887 31.5237 567.881 30.4804ZM580.676 58.749C576.124 58.6648 571.965 59.3543 569.429 61.3095C566.957 63.2215 565.942 66.2365 565.806 69.6523C565.672 73.0568 566.423 76.7049 567.318 79.6464L572.486 93.9833C576.754 102.892 580.458 111.428 586.416 119.104C589.325 121.649 592.212 122.927 595.088 123.067C597.985 123.209 601.01 122.202 604.185 119.917L604.746 119.509C607.619 117.39 611.544 114.112 615.034 110.921L615.036 110.92C620.154 106.254 625.97 102.183 632.478 98.707C633.261 98.2887 634.172 98.1765 635.029 98.4013C637.006 98.9133 638.929 99.8502 640.796 101.19L647.259 105.327L646.726 106.156L647.273 105.339C648.958 106.464 650.812 107.878 652.832 109.574C653.906 110.477 654.592 111.484 654.908 112.571C655.224 113.658 655.147 114.742 654.833 115.759C654.256 117.626 652.857 119.353 651.397 120.743L651.104 121.017C642.827 128.609 638.609 132.475 638.499 132.569L638.498 132.568C634.353 136.17 631.108 140.356 628.753 145.126C625.307 156.579 627.079 170.293 635.251 179.286L635.645 179.712C642.172 186.605 648.271 192.847 653.941 198.437L653.942 198.439C654.37 198.862 654.634 199.422 654.688 200.021C654.742 200.62 654.584 201.22 654.239 201.713C653.316 203.031 652.101 204.17 650.615 205.138L650.612 205.14C647.55 207.118 644.472 209.043 641.377 210.915L641.376 210.916C638.011 212.946 635.123 214.243 632.739 214.729L632.128 214.661C629.214 213.346 626.46 211.725 623.925 209.778C618.545 205.586 613.947 201.444 610.137 197.351C607.165 194.154 604.692 191.636 602.718 189.79L601.574 189.013C596.474 186.693 592.224 186.838 588.65 189.194C586.91 190.343 584.637 193.07 581.84 197.586C576.698 205.861 573.614 213.641 569.938 222.067C567.99 228.804 565.834 235.893 566.018 242.721L566.034 243.086C566.235 246.8 567.894 249.61 571.061 251.611C574.867 253.091 578.816 253.594 582.924 253.116L583.847 253.005C593.389 251.801 602.737 249.168 611.893 245.105C622.362 240.469 632.475 235.205 642.232 229.313L649.137 224.858C656.012 219.69 663.441 215.071 670.421 209.905C677.107 204.323 683.769 198.692 690.409 193.011C693.46 190.403 698.213 185.435 704.69 178.064C706.441 175.202 708.027 172.391 709.45 169.632C712.154 164.366 712.25 158.237 711.733 152.317L711.649 151.533C710.642 143.417 705.203 135.141 699.235 129.23L699.938 128.518L699.214 129.208C693.548 123.243 688.892 118.62 685.24 115.332C681.328 111.811 674.763 106.35 665.532 98.9404L653.722 90.4003C643.97 83.5146 633.76 77.4909 623.093 72.33L607.936 65.3437L593.122 60.5253C589.796 59.6593 585.158 58.8318 580.676 58.749Z" fill="url(#paint0_linear_5515_3142)"/>
<path d="M693.489 80.8507V81.5L678.629 71.5507C675.803 69.464 673.476 67.8641 671.649 66.7507C663.223 61.5907 653.786 56.1841 643.339 50.5307L629.059 44.2507L613.469 38.1707L599.399 33.6607C592.793 31.834 586.179 30.9574 579.559 31.0307C579.244 31.0374 578.938 31.1618 578.699 31.3807C562.169 46.9607 549.929 65.0707 538.659 84.6707C535.609 69.8007 535.999 49.1007 548.759 38.7307C554.813 33.8107 561.236 30.844 568.029 29.8307C575.649 28.6907 583.563 28.724 591.769 29.9307C598.039 30.8507 606.329 32.7507 613.049 35.3607C617.789 37.194 620.836 38.3507 622.189 38.8307C630.539 41.7707 639.229 46.0607 645.729 49.6807C651.849 53.0907 657.739 56.0907 663.849 59.9807C674.063 66.4674 683.943 73.424 693.489 80.8507Z" fill="#BEF12F"/>
<path d="M757.58 31L734.08 36.5C720.747 40.91 704.08 48.5 689.134 56.99L686.454 55.18C686.337 55.1021 686.242 54.9963 686.177 54.8723C686.111 54.7482 686.078 54.6097 686.08 54.4696C686.082 54.3294 686.119 54.192 686.188 54.0698C686.257 53.9476 686.355 53.8445 686.474 53.77C690.714 51.03 695.18 48.55 699.874 46.33C710.207 41.4434 721.29 37.5 733.124 34.5C739.55 32.8667 750.507 31.0333 757.58 31Z" fill="#98E276"/>
<path d="M670.379 212.289C666.59 214.79 645.993 228.387 641.58 230L674.86 206.039C681.56 200.446 688.236 194.803 694.889 189.11C697.58 185.5 707.58 177.5 712.08 163C712.08 167 712.301 175.04 703.58 185.5C695.17 196.17 683.089 207.06 670.379 212.29V212.289Z" fill="#5DC063"/>
<path d="M644.03 231C638.03 238.2 632.903 243.91 628.65 248.13C619.39 257.316 608.57 264.58 596.19 269.92C587.743 273.566 579.223 277.18 570.63 280.76C565.937 280.526 561.42 279.423 557.08 277.45C563.11 261.69 577.11 264.83 591.11 257.9C596.597 255.186 602.103 252.503 607.63 249.85C619.503 244.916 631.013 238.94 642.16 231.92C642.748 231.55 644.471 230.463 644.03 231Z" fill="#70CC77"/>
<path d="M642.08 229.497C647.08 225.5 643.274 231.05 642.51 231.53C631.363 238.55 619.853 244.526 607.98 249.46C599.58 253.497 577.08 259.75 570.08 252.46C574.067 254.026 578.21 254.56 582.51 254.06C592.477 252.9 602.54 249.731 612.08 245.497C622.587 240.844 632.287 235.41 642.08 229.497Z" fill="#98E276"/>
<path d="M568.84 222C566.9 228.71 564.67 235.99 564.86 243.03C564.98 247.29 566.843 250.543 570.45 252.79C577.45 260.08 600.19 252.95 608.35 249.79C602.823 252.443 597.317 255.127 591.83 257.84C577.83 264.77 563.83 261.63 557.8 277.39C553.24 275.183 549.333 272.27 546.08 268.65C552.54 251.91 559.19 236.75 568.84 222Z" fill="#73CE70"/>
<path d="M628.79 144.59L621.58 160.5C621.58 138.5 634.241 121.315 647.69 106C649.337 107.1 651.16 108.49 653.16 110.17C656.97 113.37 654.44 117.32 651.4 120.11C643.107 127.717 638.913 131.56 638.82 131.64C634.553 135.347 631.21 139.663 628.79 144.59Z" fill="#4FAA3B"/>
<path d="M620.59 177L623.25 191.62L603.36 189.31L602.08 188.44C609.27 187.26 615.69 182.6 620.59 177Z" fill="#5DC260"/>
<path d="M623.251 191.621C625.678 197.281 628.195 202.917 630.801 208.531C631.248 209.497 631.831 211.337 632.551 214.051C629.551 212.697 626.885 211.111 624.551 209.291C619.205 205.124 614.648 201.017 610.881 196.971C607.875 193.737 605.368 191.184 603.361 189.311L623.251 191.621Z" fill="#4BB458"/>
<path d="M779.26 140C776.13 149.25 774.79 158.15 778.68 167.42L754.44 190.65C748.58 185.65 741.09 186.79 735.84 191.61C733.867 193.417 721.447 205.22 719.58 207C721.6 198.62 740.813 178.44 746.08 171.5L749.5 168.6C751.08 167.42 757.093 162.367 760.58 159C762.98 156.68 766.277 154.44 769.63 150.96C772.477 148.007 775.08 144.85 777.44 141.49L779.26 140Z" fill="#1F8D42"/>
<path d="M628.08 146C624.47 157.91 627.596 171.32 636.426 180.64C642.959 187.54 649.066 193.79 654.746 199.39C655.005 199.647 655.166 199.988 655.199 200.352C655.232 200.716 655.135 201.08 654.926 201.38C654.086 202.58 652.969 203.633 651.576 204.54C648.522 206.513 645.452 208.433 642.366 210.3C639.039 212.307 636.266 213.537 634.046 213.99C633.326 211.277 632.742 209.437 632.296 208.47C629.689 202.857 627.172 197.22 624.746 191.56L620.581 177.5C620.547 171.92 620.838 167.047 621.585 161.5C621.985 158.54 624.376 154.47 625.616 151.79L628.08 146Z" fill="#30A043"/>
<path fill-rule="evenodd" clip-rule="evenodd" d="M624.58 143.518C623.08 149.503 621.948 157.196 621.548 160.156C620.801 165.702 620.444 171.266 620.478 176.846C615.578 182.446 609.158 187.106 601.968 188.286C596.608 185.826 591.951 185.9 587.998 188.506C586.058 189.786 583.688 192.686 580.888 197.205C575.688 205.575 572.567 213.456 568.897 221.866C559.247 236.616 552.598 251.776 546.138 268.516C537.427 260.001 537.449 247.726 537.427 247.456C536.567 237.843 537.307 227.463 539.647 218.317L539.648 218.313L544.328 202.096C547.368 193.366 550.778 187.087 555.868 176.927C557.618 173.437 559.728 170.387 561.918 167.277C565.791 163.55 569.501 159.797 573.048 156.017C578.494 150.204 596.08 133.493 605.5 128.5C615.587 123.147 642.08 111.983 641.08 113.5C640.08 115.016 626.318 136.584 624.58 143.518Z" fill="#83E572"/>
<path fill-rule="evenodd" clip-rule="evenodd" d="M801.58 57C803.26 62.1999 803.92 67.4265 803.56 72.6797C790.07 89.1297 781.84 101.55 770.93 118.07C762.01 131.57 755.149 140.601 743.069 157.021C739.689 161.607 735.543 168.397 730.63 177.39C723.363 180.49 706.293 191.193 698.08 192.5C696.489 192.738 700.08 191.5 708.22 179.43L708.222 179.428C709.714 176.129 710.754 173.227 711.341 170.721C712.474 165.861 713.608 159.81 714.741 152.57C716.108 143.77 716.131 135.007 714.811 126.28C715.101 126.026 715.391 125.769 715.679 125.511L716.537 124.729C715.968 125.254 715.392 125.771 714.811 126.28L713.4 119.061C713.167 117.634 712.823 116.184 712.37 114.711C709.8 106.401 706.24 97.2505 700.58 90.5205L698.88 88.5605L694.58 83.5L693.58 81.5C694.353 81.9667 695.554 82.7201 697.08 84C708.527 93.5799 718.467 103.467 727.601 112.48C725.18 115.684 722.606 118.683 719.881 121.476L720.694 120.632C723.12 118.081 725.422 115.364 727.601 112.48C734.47 120.22 741.059 128.048 752.528 122.79C754.995 121.123 756.917 119.257 758.29 117.19C760.503 113.877 762.826 109.9 765.26 105.26C770.473 101.653 775.006 97.3566 778.859 92.3701C787.353 81.3901 794.927 69.6 801.58 57ZM718.227 123.127C717.948 123.398 717.668 123.667 717.387 123.934L718.227 123.127C718.505 122.856 718.783 122.583 719.059 122.308L718.227 123.127Z" fill="#71CC88"/>
<path fill-rule="evenodd" clip-rule="evenodd" d="M803.56 72.6797C803.6 80.9297 801.831 88.3002 799.631 96.1602C798.891 98.7999 798.064 101.296 797.15 103.649C792.304 116.156 786.128 127.936 778.621 138.989L776.801 140.479C776.722 140.523 776.645 140.57 776.567 140.615C776.645 140.57 776.722 140.524 776.8 140.48C774.44 143.84 771.836 146.997 768.989 149.95C765.636 153.43 762.759 156.33 760.359 158.65C756.873 162.016 753.041 164.996 748.861 167.589L740.371 173L730.63 177.39C735.543 168.396 739.691 161.606 743.071 157.02C755.151 140.6 762.011 131.569 770.931 118.069C781.841 101.549 790.07 89.1296 803.56 72.6797Z" fill="#71CC88"/>
<path d="M462.373 266V234.275H482.893V237.695H466.423V248.18H481.858V251.6H466.423V262.58H482.893V266H462.373Z" fill="white"/>
<path d="M420.285 266V234.275H433.425C436.815 234.275 439.425 235.07 441.255 236.66C443.115 238.25 444.045 240.47 444.045 243.32C444.045 245.21 443.625 246.815 442.785 248.135C441.945 249.455 440.76 250.46 439.23 251.15C437.73 251.84 435.975 252.185 433.965 252.185L434.73 251.555H435.81C437.04 251.555 438.135 251.87 439.095 252.5C440.055 253.1 440.85 254.09 441.48 255.47L445.98 266H441.345L436.98 255.56C436.47 254.27 435.72 253.43 434.73 253.04C433.77 252.65 432.555 252.455 431.085 252.455H424.47V266H420.285ZM424.47 249.215H432.795C435.105 249.215 436.86 248.72 438.06 247.73C439.29 246.74 439.905 245.3 439.905 243.41C439.905 241.55 439.29 240.14 438.06 239.18C436.86 238.19 435.105 237.695 432.795 237.695H424.47V249.215Z" fill="white"/>
<path d="M373.021 266L387.061 234.275H390.706L404.971 266H400.651L396.736 257L398.536 258.08H379.231L381.211 257L377.296 266H373.021ZM388.816 238.955L381.796 255.605L380.716 254.66H397.051L396.196 255.605L388.996 238.955H388.816Z" fill="white"/>
<path d="M326.51 266L315.395 234.275H319.805L329.21 262.265H327.59L337.58 234.275H340.865L350.225 262.265H348.785L358.505 234.275H362.645L351.44 266H347.795L338.66 239.225H339.605L330.11 266H326.51Z" fill="white"/>
<path d="M286.724 266V237.83H275.744V234.275H301.979V237.83H290.954V266H286.724Z" fill="white"/>
<path d="M242.744 266V234.275H262.814V237.695H246.929V248.315H261.779V251.735H246.929V266H242.744Z" fill="white"/>
<path d="M195.836 250.114C195.836 246.784 196.421 243.904 197.591 241.474C198.761 239.044 200.441 237.169 202.631 235.849C204.851 234.529 207.491 233.869 210.551 233.869C213.581 233.869 216.191 234.529 218.381 235.849C220.601 237.169 222.311 239.044 223.511 241.474C224.711 243.904 225.311 246.769 225.311 250.069C225.311 253.399 224.711 256.294 223.511 258.754C222.311 261.184 220.601 263.074 218.381 264.424C216.191 265.744 213.581 266.404 210.551 266.404C207.491 266.404 204.866 265.744 202.676 264.424C200.486 263.074 198.791 261.184 197.591 258.754C196.421 256.294 195.836 253.414 195.836 250.114ZM200.246 250.114C200.246 254.074 201.116 257.164 202.856 259.384C204.596 261.604 207.161 262.714 210.551 262.714C213.821 262.714 216.356 261.619 218.156 259.429C219.986 257.209 220.901 254.104 220.901 250.114C220.901 246.124 220.001 243.034 218.201 240.844C216.401 238.654 213.851 237.559 210.551 237.559C207.161 237.559 204.596 238.654 202.856 240.844C201.116 243.034 200.246 246.124 200.246 250.114Z" fill="white"/>
<path d="M168.435 266.404C165.885 266.404 163.59 266.074 161.55 265.414C159.51 264.754 157.74 263.824 156.24 262.624L157.68 259.294C158.73 260.074 159.795 260.734 160.875 261.274C161.955 261.784 163.11 262.174 164.34 262.444C165.6 262.684 166.965 262.804 168.435 262.804C171.045 262.804 172.965 262.339 174.195 261.409C175.455 260.449 176.085 259.189 176.085 257.629C176.085 256.279 175.65 255.244 174.78 254.524C173.91 253.804 172.395 253.234 170.235 252.814L165.42 251.824C162.51 251.224 160.335 250.249 158.895 248.899C157.485 247.519 156.78 245.659 156.78 243.319C156.78 241.429 157.275 239.779 158.265 238.369C159.285 236.929 160.68 235.819 162.45 235.039C164.25 234.259 166.35 233.869 168.75 233.869C170.97 233.869 173.025 234.199 174.915 234.859C176.805 235.519 178.395 236.494 179.685 237.784L178.245 240.979C176.895 239.749 175.44 238.864 173.88 238.324C172.35 237.754 170.61 237.469 168.66 237.469C166.29 237.469 164.415 237.979 163.035 238.999C161.655 240.019 160.965 241.399 160.965 243.139C160.965 244.519 161.4 245.614 162.27 246.424C163.14 247.204 164.58 247.804 166.59 248.224L171.405 249.169C174.465 249.769 176.7 250.714 178.11 252.004C179.55 253.294 180.27 255.079 180.27 257.359C180.27 259.159 179.79 260.749 178.83 262.129C177.87 263.479 176.505 264.529 174.735 265.279C172.965 266.029 170.865 266.404 168.435 266.404Z" fill="white"/>
<defs>
<linearGradient id="paint0_linear_5515_3142" x1="561.08" y1="50" x2="785.08" y2="268" gradientUnits="userSpaceOnUse">
<stop stop-color="#BEF12F"/>
<stop offset="0.509615" stop-color="#4AB24D"/>
<stop offset="0.865385" stop-color="#33A06B"/>
<stop offset="0.961538" stop-color="#129256"/>
</linearGradient>
</defs>
</svg>
